<svg width="256" height="256" viewBox="0 0 256 256" fill="none" xmlns="http://www.w3.org/2000/svg">
<g clip-path="url(#clip0_1069_14342)">
<rect width="256" height="256" rx="128" fill="white"/>
<g clip-path="url(#clip1_1069_14342)">
<path d="M130.093 175.013L130.093 140.393L137.184 138.055L191.014 120.305V127.914C191.014 128.333 190.737 128.705 190.325 128.841L137.673 146.203C136.572 146.566 135.834 147.56 135.834 148.677C135.834 150.473 137.673 151.735 139.441 151.152L189.663 134.593C190.325 134.374 191.014 134.847 191.014 135.519V141.756C191.014 142.174 190.737 142.547 190.325 142.682L137.673 160.044C136.572 160.407 135.834 161.401 135.834 162.519C135.834 164.315 137.673 165.577 139.441 164.994L189.663 148.434C190.325 148.216 191.014 148.689 191.014 149.361L191.014 155.597C191.014 156.016 190.737 156.388 190.325 156.524L136.522 174.265L131.443 175.94C130.781 176.158 130.093 175.686 130.093 175.013ZM136.522 136.201L129.074 138.657L122.343 136.429L121.655 136.201L69.1207 118.811L128.74 99.1933C128.955 99.1225 129.188 99.1228 129.403 99.1941L188.901 118.931L136.522 136.201ZM67.0015 120.182L120.304 137.827V144.771C120.304 145.444 119.614 145.916 118.952 145.698L67.6901 128.779C67.2782 128.643 67.0016 128.27 67.0016 127.852L67.0015 120.182ZM120.304 158.613C120.304 159.286 119.614 159.758 118.952 159.54L67.69 142.62C67.2781 142.484 67.0015 142.112 67.0015 141.694L67.0014 135.398C67.0014 134.725 67.6912 134.252 68.3534 134.471L119.616 151.441C120.027 151.577 120.304 151.949 120.304 152.367L120.304 158.613ZM120.304 172.455C120.304 173.127 119.614 173.6 118.952 173.381L67.6899 156.462C67.278 156.326 67.0014 155.954 67.0014 155.535L67.0013 149.239C67.0013 148.566 67.6911 148.094 68.3533 148.313L119.616 165.282C120.027 165.419 120.304 165.791 120.304 166.209L120.304 172.455Z" fill="#1789FC" stroke="#F0AD3E" stroke-width="2"/>
<path d="M26.7581 104.357L129.39 70.5863L231.813 104.562L129.394 138.333L26.7581 104.357Z" fill="#296EB4" stroke="#F0AD3E" stroke-width="4" stroke-linejoin="round"/>
<path d="M129 105.5C129.828 105.5 130.5 104.828 130.5 104C130.5 103.172 129.828 102.5 129 102.5L129 105.5ZM26.3072 104L26.3072 102.5C25.4788 102.5 24.8072 103.172 24.8072 104L26.3072 104ZM23.1335 133.29L24.6318 133.36L23.1335 133.29ZM24.8072 144C24.8072 144.828 25.4788 145.5 26.3072 145.5C27.1356 145.5 27.8072 144.828 27.8072 144L24.8072 144ZM29.2542 133.29L27.7559 133.36L29.2542 133.29ZM20.8046 143.094C20.3042 143.754 20.4337 144.695 21.094 145.195C21.7542 145.696 22.6951 145.566 23.1954 144.906L20.8046 143.094ZM29.9179 144.963C30.4499 145.598 31.396 145.682 32.031 145.15C32.6661 144.618 32.7496 143.672 32.2177 143.037L29.9179 144.963ZM129 102.5L26.3072 102.5L26.3072 105.5L129 105.5L129 102.5ZM24.8072 104L24.8072 128.699L27.8072 128.699L27.8072 104L24.8072 104ZM26.3072 128.699C25.4383 127.477 25.438 127.477 25.4377 127.477C25.4375 127.477 25.4372 127.478 25.437 127.478C25.4365 127.478 25.4359 127.478 25.4353 127.479C25.4341 127.48 25.4327 127.481 25.4312 127.482C25.4281 127.484 25.4242 127.487 25.4196 127.49C25.4104 127.497 25.3984 127.506 25.3836 127.516C25.3541 127.538 25.3138 127.568 25.2641 127.606C25.1648 127.682 25.0275 127.79 24.8644 127.927C24.5403 128.198 24.1041 128.59 23.6596 129.072C22.8286 129.974 21.7174 131.458 21.6351 133.22L24.6318 133.36C24.6623 132.706 25.1379 131.895 25.8657 131.105C26.2005 130.742 26.5366 130.439 26.7899 130.227C26.9156 130.122 27.0183 130.041 27.0868 129.989C27.1211 129.963 27.1466 129.944 27.162 129.933C27.1697 129.927 27.1748 129.923 27.1772 129.921C27.1784 129.921 27.179 129.92 27.1788 129.92C27.1787 129.92 27.1784 129.921 27.178 129.921C27.1778 129.921 27.1775 129.921 27.1772 129.921C27.177 129.922 27.1768 129.922 27.1767 129.922C27.1764 129.922 27.1761 129.922 26.3072 128.699ZM21.6351 133.22C21.5471 135.103 22.6871 136.746 23.539 137.736C23.9982 138.269 24.4566 138.707 24.7984 139.011C24.9704 139.163 25.1158 139.285 25.2208 139.37C25.2733 139.413 25.316 139.446 25.347 139.471C25.3626 139.483 25.3752 139.493 25.3848 139.5C25.3895 139.504 25.3935 139.507 25.3968 139.509C25.3984 139.51 25.3998 139.511 25.401 139.512C25.4016 139.513 25.4021 139.513 25.4026 139.513C25.4029 139.514 25.4032 139.514 25.4033 139.514C25.4036 139.514 25.404 139.514 26.3072 138.317C27.2104 137.119 27.2107 137.12 27.211 137.12C27.2111 137.12 27.2113 137.12 27.2115 137.12C27.2118 137.12 27.2121 137.121 27.2122 137.121C27.2127 137.121 27.2129 137.121 27.2129 137.121C27.2129 137.121 27.2122 137.121 27.2108 137.12C27.2079 137.117 27.202 137.113 27.1935 137.106C27.1764 137.093 27.1484 137.071 27.1112 137.041C27.0366 136.98 26.9256 136.888 26.7908 136.768C26.519 136.526 26.1617 136.184 25.8125 135.779C25.0479 134.89 24.601 134.02 24.6318 133.36L21.6351 133.22ZM24.8072 138.317L24.8072 144L27.8072 144L27.8072 138.317L24.8072 138.317ZM26.3072 138.317C27.2513 139.483 27.2517 139.482 27.252 139.482C27.2521 139.482 27.2524 139.482 27.2527 139.481C27.2532 139.481 27.2537 139.481 27.2543 139.48C27.2555 139.479 27.2568 139.478 27.2584 139.477C27.2614 139.474 27.2653 139.471 27.2698 139.467C27.2789 139.46 27.2909 139.45 27.3056 139.438C27.3349 139.413 27.375 139.379 27.4243 139.336C27.5229 139.25 27.6591 139.128 27.8201 138.974C28.1399 138.669 28.5681 138.23 28.9962 137.695C29.7981 136.693 30.8388 135.065 30.7526 133.22L27.7559 133.36C27.7885 134.059 27.3556 134.944 26.6543 135.82C26.3308 136.224 26 136.564 25.7487 136.804C25.6241 136.923 25.5217 137.015 25.4531 137.075C25.4188 137.104 25.3932 137.126 25.3777 137.139C25.3699 137.146 25.3647 137.15 25.3622 137.152C25.3609 137.153 25.3604 137.154 25.3605 137.153C25.3606 137.153 25.3608 137.153 25.3612 137.153C25.3615 137.153 25.3617 137.152 25.362 137.152C25.3622 137.152 25.3624 137.152 25.3625 137.152C25.3628 137.152 25.3631 137.151 26.3072 138.317ZM30.7526 133.22C30.6722 131.498 29.6589 130.027 28.8788 129.114C28.4654 128.631 28.0596 128.237 27.7574 127.964C27.6054 127.827 27.4773 127.718 27.3845 127.641C27.338 127.603 27.3002 127.572 27.2724 127.55C27.2585 127.539 27.2471 127.53 27.2384 127.523C27.2341 127.52 27.2304 127.517 27.2274 127.515C27.2259 127.514 27.2245 127.513 27.2234 127.512C27.2228 127.511 27.2223 127.511 27.2218 127.511C27.2215 127.51 27.2212 127.51 27.2211 127.51C27.2208 127.51 27.2205 127.51 26.3072 128.699C25.394 129.889 25.3937 129.889 25.3934 129.889C25.3933 129.889 25.393 129.889 25.3929 129.889C25.3926 129.888 25.3923 129.888 25.3921 129.888C25.3916 129.888 25.3913 129.887 25.3911 129.887C25.3909 129.887 25.3913 129.887 25.3923 129.888C25.3943 129.89 25.3988 129.893 25.4057 129.899C25.4195 129.91 25.4427 129.928 25.474 129.954C25.5365 130.006 25.6307 130.086 25.7462 130.19C25.979 130.4 26.2888 130.701 26.5981 131.063C27.2633 131.842 27.7235 132.667 27.7559 133.36L30.7526 133.22ZM25.1118 137.411L20.8046 143.094L23.1954 144.906L27.5027 139.223L25.1118 137.411ZM25.1573 139.28L29.9179 144.963L32.2177 143.037L27.4571 137.354L25.1573 139.28Z" fill="#F0AD3E"/>
<path d="M133.377 104.381C133.377 104.809 133.098 105.346 132.33 105.827C131.576 106.3 130.472 106.625 129.2 106.625C127.928 106.625 126.824 106.3 126.07 105.827C125.302 105.346 125.023 104.809 125.023 104.381C125.023 103.953 125.302 103.415 126.07 102.934C126.824 102.462 127.928 102.137 129.2 102.137C130.472 102.137 131.576 102.462 132.33 102.934C133.098 103.415 133.377 103.953 133.377 104.381Z" fill="#296EB4" stroke="#F0AD3E" stroke-width="2"/>
</g>
<path d="M62.5713 211V187H78.7432V191.184H67.6455V196.902H77.9111V201.086H67.6455V206.816H78.79V211H62.5713ZM87.6758 200.594V211H82.6836V193H87.4414V196.176H87.6523C88.0508 195.129 88.7188 194.301 89.6563 193.691C90.5937 193.074 91.7305 192.766 93.0664 192.766C94.3164 192.766 95.4063 193.039 96.3359 193.586C97.2656 194.133 97.9883 194.914 98.5039 195.93C99.0195 196.937 99.2773 198.141 99.2773 199.539V211H94.2852V200.43C94.293 199.328 94.0117 198.469 93.4414 197.852C92.8711 197.227 92.0859 196.914 91.0859 196.914C90.4141 196.914 89.8203 197.059 89.3047 197.348C88.7969 197.637 88.3984 198.059 88.1094 198.613C87.8281 199.16 87.6836 199.82 87.6758 200.594ZM111.345 211.352C109.501 211.352 107.915 210.961 106.587 210.18C105.267 209.391 104.251 208.297 103.54 206.898C102.837 205.5 102.485 203.891 102.485 202.07C102.485 200.227 102.841 198.609 103.552 197.219C104.271 195.82 105.29 194.73 106.61 193.949C107.931 193.16 109.501 192.766 111.321 192.766C112.892 192.766 114.267 193.051 115.446 193.621C116.626 194.191 117.56 194.992 118.247 196.023C118.935 197.055 119.313 198.266 119.384 199.656H114.673C114.54 198.758 114.188 198.035 113.618 197.488C113.056 196.934 112.317 196.656 111.403 196.656C110.63 196.656 109.954 196.867 109.376 197.289C108.806 197.703 108.36 198.309 108.04 199.105C107.72 199.902 107.56 200.867 107.56 202C107.56 203.148 107.716 204.125 108.028 204.93C108.349 205.734 108.798 206.348 109.376 206.77C109.954 207.191 110.63 207.402 111.403 207.402C111.974 207.402 112.485 207.285 112.938 207.051C113.399 206.816 113.778 206.477 114.075 206.031C114.38 205.578 114.579 205.035 114.673 204.402H119.384C119.306 205.777 118.931 206.988 118.259 208.035C117.595 209.074 116.677 209.887 115.505 210.473C114.333 211.059 112.946 211.352 111.345 211.352ZM130.713 211.352C128.893 211.352 127.318 210.965 125.99 210.191C124.67 209.41 123.65 208.324 122.932 206.934C122.213 205.535 121.854 203.914 121.854 202.07C121.854 200.211 122.213 198.586 122.932 197.195C123.65 195.797 124.67 194.711 125.99 193.937C127.318 193.156 128.893 192.766 130.713 192.766C132.533 192.766 134.104 193.156 135.424 193.937C136.752 194.711 137.775 195.797 138.494 197.195C139.213 198.586 139.572 200.211 139.572 202.07C139.572 203.914 139.213 205.535 138.494 206.934C137.775 208.324 136.752 209.41 135.424 210.191C134.104 210.965 132.533 211.352 130.713 211.352ZM130.736 207.484C131.564 207.484 132.256 207.25 132.811 206.781C133.365 206.305 133.783 205.656 134.064 204.836C134.354 204.016 134.498 203.082 134.498 202.035C134.498 200.988 134.354 200.055 134.064 199.234C133.783 198.414 133.365 197.766 132.811 197.289C132.256 196.812 131.564 196.574 130.736 196.574C129.9 196.574 129.197 196.812 128.627 197.289C128.064 197.766 127.639 198.414 127.35 199.234C127.068 200.055 126.928 200.988 126.928 202.035C126.928 203.082 127.068 204.016 127.35 204.836C127.639 205.656 128.064 206.305 128.627 206.781C129.197 207.25 129.9 207.484 130.736 207.484ZM142.818 211V193H147.658V196.141H147.846C148.174 195.023 148.725 194.18 149.498 193.609C150.271 193.031 151.162 192.742 152.17 192.742C152.42 192.742 152.689 192.758 152.979 192.789C153.268 192.82 153.521 192.863 153.74 192.918V197.348C153.506 197.277 153.182 197.215 152.768 197.16C152.354 197.105 151.975 197.078 151.631 197.078C150.896 197.078 150.24 197.238 149.662 197.559C149.092 197.871 148.639 198.309 148.303 198.871C147.975 199.434 147.811 200.082 147.811 200.816V211H142.818Z" fill="#077FF3"/>
<path d="M156.415 211V187H172.587V191.184H161.489V196.902H171.755V201.086H161.489V206.816H172.634V211H156.415ZM183.16 211.293C181.793 211.293 180.555 210.941 179.445 210.238C178.344 209.527 177.469 208.484 176.82 207.109C176.18 205.727 175.859 204.031 175.859 202.023C175.859 199.961 176.191 198.246 176.855 196.879C177.52 195.504 178.402 194.477 179.504 193.797C180.613 193.109 181.828 192.766 183.148 192.766C184.156 192.766 184.996 192.938 185.668 193.281C186.348 193.617 186.895 194.039 187.309 194.547C187.73 195.047 188.051 195.539 188.27 196.023H188.422V187H193.402V211H188.48V208.117H188.27C188.035 208.617 187.703 209.113 187.273 209.605C186.852 210.09 186.301 210.492 185.621 210.812C184.949 211.133 184.129 211.293 183.16 211.293ZM184.742 207.32C185.547 207.32 186.227 207.102 186.781 206.664C187.344 206.219 187.773 205.598 188.07 204.801C188.375 204.004 188.527 203.07 188.527 202C188.527 200.93 188.379 200 188.082 199.211C187.785 198.422 187.355 197.812 186.793 197.383C186.23 196.953 185.547 196.738 184.742 196.738C183.922 196.738 183.23 196.961 182.668 197.406C182.105 197.852 181.68 198.469 181.391 199.258C181.102 200.047 180.957 200.961 180.957 202C180.957 203.047 181.102 203.973 181.391 204.777C181.688 205.574 182.113 206.199 182.668 206.652C183.23 207.098 183.922 207.32 184.742 207.32Z" fill="#FFD037"/>
</g>
<defs>
<clipPath id="clip0_1069_14342">
<rect width="256" height="256" rx="128" fill="white"/>
</clipPath>
<clipPath id="clip1_1069_14342">
<rect width="256" height="256" fill="white"/>
</clipPath>
</defs>
</svg>
